<svg width="20" height="21" viewBox="0 0 20 21" fill="none" xmlns="http://www.w3.org/2000/svg">
<path d="M18.1713 8.86794H17.5V8.83335H10V12.1667H14.7096C14.0225 14.1071 12.1763 15.5 10 15.5C7.23877 15.5 5.00002 13.2613 5.00002 10.5C5.00002 7.73877 7.23877 5.50002 10 5.50002C11.2746 5.50002 12.4342 5.98085 13.3171 6.76627L15.6742 4.40919C14.1859 3.0221 12.195 2.16669 10 2.16669C5.39794 2.16669 1.66669 5.89794 1.66669 10.5C1.66669 15.1021 5.39794 18.8334 10 18.8334C14.6021 18.8334 18.3334 15.1021 18.3334 10.5C18.3334 9.94127 18.2759 9.39585 18.1713 8.86794Z" fill="#FFC107"/>
<path d="M2.62744 6.62127L5.36536 8.62919C6.10619 6.79502 7.90036 5.50002 9.99994 5.50002C11.2745 5.50002 12.4341 5.98085 13.317 6.76627L15.6741 4.40919C14.1858 3.0221 12.1949 2.16669 9.99994 2.16669C6.79911 2.16669 4.02327 3.97377 2.62744 6.62127Z" fill="#FF3D00"/>
<path d="M10 18.8336C12.1525 18.8336 14.1084 18.0099 15.5871 16.6703L13.008 14.4878C12.1433 15.1457 11.0865 15.5015 10 15.5003C7.83255 15.5003 5.99213 14.1182 5.2988 12.1895L2.5813 14.2832C3.96047 16.982 6.7613 18.8336 10 18.8336Z" fill="#4CAF50"/>
<path d="M18.1712 8.8679H17.5V8.83331H10V12.1666H14.7096C14.3809 13.0902 13.7889 13.8971 13.0067 14.4879L13.0079 14.4871L15.5871 16.6696C15.4046 16.8354 18.3333 14.6666 18.3333 10.5C18.3333 9.94123 18.2758 9.39581 18.1712 8.8679Z" fill="#1976D2"/>
</svg>
